<?xml version="1.0" encoding="UTF-8"?>
<!DOCTYPE svg PUBLIC "-//W3C//DTD SVG 1.1//EN" "http://www.w3.org/Graphics/SVG/1.1/DTD/svg11.dtd">
<svg xmlns="http://www.w3.org/2000/svg" version="1.1" width="7680px" height="4320px" style="shape-rendering:geometricPrecision; text-rendering:geometricPrecision; image-rendering:optimizeQuality; fill-rule:evenodd; clip-rule:evenodd" xmlns:xlink="http://www.w3.org/1999/xlink">
<g><path style="opacity:0.989" fill="#fefffe" d="M 2718.5,936.5 C 2786.25,1030.43 2853.08,1125.1 2919,1220.5C 3059.33,1423.15 3199.16,1626.15 3338.5,1829.5C 3447.52,1733.84 3574.19,1674.34 3718.5,1651C 3766.53,1643.24 3814.86,1639.74 3863.5,1640.5C 3863.67,1534.83 3863.5,1429.17 3863,1323.5C 3862.6,1299.91 3856.6,1277.91 3845,1257.5C 3829.49,1238.15 3809.32,1226.65 3784.5,1223C 3751.39,1217.69 3718.06,1215.19 3684.5,1215.5C 3684.5,1211.5 3684.5,1207.5 3684.5,1203.5C 3876.83,1203.33 4069.17,1203.5 4261.5,1204C 4351.84,1205.33 4438.51,1223.67 4521.5,1259C 4689.7,1337.37 4758.87,1468.53 4729,1652.5C 4708.18,1742.37 4660.35,1813.87 4585.5,1867C 4527.68,1906.23 4464.35,1932.89 4395.5,1947C 4369.36,1952.52 4343.03,1956.86 4316.5,1960C 4449.83,1977.18 4568.83,2027.18 4673.5,2110C 4832.7,2246.25 4890.2,2417.42 4846,2623.5C 4823.11,2722.97 4777.44,2809.97 4709,2884.5C 4637.35,2959.75 4554.19,3018.92 4459.5,3062C 4415.41,3082.48 4370.07,3099.81 4323.5,3114C 4504.15,3237.25 4702.82,3316.91 4919.5,3353C 4992.38,3364.46 5065.72,3370.3 5139.5,3370.5C 5139.5,3374.5 5139.5,3378.5 5139.5,3382.5C 4985.83,3383.83 4833.5,3370.33 4682.5,3342C 4378.72,3282.13 4116.72,3145.13 3896.5,2931C 3794.09,2830.32 3702.59,2721.15 3622,2603.5C 3600.75,2572.01 3579.75,2540.34 3559,2508.5C 3456.42,2340.33 3354.08,2172 3252,2003.5C 3251.33,2002.17 3251.33,2000.83 3252,1999.5C 3282.03,1950.5 3318.03,1906.17 3360,1866.5C 3484.5,2070.17 3608.5,2274.17 3732,2478.5C 3824.55,2628.1 3932.55,2766.1 4056,2892.5C 4117.52,2953.93 4182.68,3010.77 4251.5,3063C 4266.91,3074.79 4282.75,3085.95 4299,3096.5C 4506.18,3012.63 4629.18,2860.3 4668,2639.5C 4680.86,2563.46 4683.19,2487.13 4675,2410.5C 4658.27,2282.21 4603.77,2173.38 4511.5,2084C 4437.4,2016.3 4350.06,1977.3 4249.5,1967C 4180.85,1965.55 4112.18,1965.05 4043.5,1965.5C 4043.67,2246.17 4043.5,2526.83 4043,2807.5C 3979.14,2738.99 3919.8,2666.99 3865,2591.5C 3863.5,2278.58 3863,1965.58 3863.5,1652.5C 3720.08,1649.69 3586.08,1683.52 3461.5,1754C 3309.68,1844.89 3209.18,1975.72 3160,2146.5C 3125.35,2273.3 3118.01,2401.63 3138,2531.5C 3168.76,2693.9 3243.93,2831.4 3363.5,2944C 3522.63,3087.74 3710.13,3159.91 3926,3160.5C 3990.29,3161.06 4054.13,3156.06 4117.5,3145.5C 4123.34,3148.92 4129,3152.58 4134.5,3156.5C 4043.69,3171.1 3952.36,3175.94 3860.5,3171C 3644.74,3153.02 3462.24,3066.52 3313,2911.5C 3173.48,2756.99 3107.48,2574.99 3115,2365.5C 3117.16,2261.87 3137.16,2161.87 3175,2065.5C 3189.63,2029.9 3207.13,1995.9 3227.5,1963.5C 3061,1709.85 2895.5,1455.52 2731,1200.5C 2730.01,1679.18 2730.34,2157.85 2732,2636.5C 2736.14,2691.97 2765.97,2722.47 2821.5,2728C 2850.71,2731.86 2880.04,2733.36 2909.5,2732.5C 2909.5,2736.83 2909.5,2741.17 2909.5,2745.5C 2786.17,2745.5 2662.83,2745.5 2539.5,2745.5C 2539.5,2741.17 2539.5,2736.83 2539.5,2732.5C 2566.25,2733.15 2592.92,2731.98 2619.5,2729C 2638.39,2727.11 2656.39,2722.11 2673.5,2714C 2692.83,2703.19 2705.33,2687.02 2711,2665.5C 2715.97,2644.81 2718.31,2623.81 2718,2602.5C 2718.5,2047.17 2718.67,1491.83 2718.5,936.5 Z M 4043.5,1215.5 C 4111.17,1215.33 4178.83,1215.5 4246.5,1216C 4338.31,1221.65 4414.14,1259.15 4474,1328.5C 4521.35,1386.58 4548.35,1453.24 4555,1528.5C 4562.65,1609.26 4550.65,1686.92 4519,1761.5C 4468.87,1868.19 4385.37,1930.69 4268.5,1949C 4252.57,1951.18 4236.57,1952.51 4220.5,1953C 4161.5,1953.5 4102.5,1953.67 4043.5,1953.5C 4043.5,1707.5 4043.5,1461.5 4043.5,1215.5 Z"/></g>
</svg>
