<?xml version="1.0" encoding="UTF-8"?>
<!DOCTYPE svg PUBLIC "-//W3C//DTD SVG 1.1//EN" "http://www.w3.org/Graphics/SVG/1.1/DTD/svg11.dtd">
<svg xmlns="http://www.w3.org/2000/svg" version="1.1" width="7681px" height="4320px" style="shape-rendering:geometricPrecision; text-rendering:geometricPrecision; image-rendering:optimizeQuality; fill-rule:evenodd; clip-rule:evenodd" xmlns:xlink="http://www.w3.org/1999/xlink">
<g><path style="opacity:0.966" fill="#fefffe" d="M 2976.5,2006.5 C 2980.23,2006.18 2983.89,2006.51 2987.5,2007.5C 3026.06,2091.62 3064.89,2175.62 3104,2259.5C 3112.91,2271.88 3125.08,2278.38 3140.5,2279C 3143.82,2279.5 3147.15,2279.67 3150.5,2279.5C 3150.5,2282.5 3150.5,2285.5 3150.5,2288.5C 3096.83,2288.5 3043.17,2288.5 2989.5,2288.5C 2989.5,2285.5 2989.5,2282.5 2989.5,2279.5C 3003,2280.06 3016.34,2278.89 3029.5,2276C 3035.79,2273.43 3039.46,2268.76 3040.5,2262C 3034.1,2241.19 3025.76,2221.19 3015.5,2202C 2977.5,2201.17 2939.5,2201.33 2901.5,2202.5C 2897.57,2211.13 2893.74,2219.79 2890,2228.5C 2883.51,2259.53 2896.01,2276.53 2927.5,2279.5C 2927.5,2282.5 2927.5,2285.5 2927.5,2288.5C 2889.5,2288.5 2851.5,2288.5 2813.5,2288.5C 2813.5,2285.5 2813.5,2282.5 2813.5,2279.5C 2826.71,2278.89 2838.38,2274.39 2848.5,2266C 2866.67,2248.52 2880.5,2228.02 2890,2204.5C 2918.57,2138.36 2947.4,2072.36 2976.5,2006.5 Z M 2957.5,2074.5 C 2975.6,2113.87 2993.6,2153.37 3011.5,2193C 2976.16,2193.83 2940.83,2193.67 2905.5,2192.5C 2923.03,2153.23 2940.37,2113.89 2957.5,2074.5 Z"/></g>
<g><path style="opacity:0.966" fill="#fefffe" d="M 4613.5,2006.5 C 4617.23,2006.18 4620.89,2006.51 4624.5,2007.5C 4663.24,2091.54 4702.07,2175.54 4741,2259.5C 4749.91,2271.88 4762.08,2278.38 4777.5,2279C 4780.82,2279.5 4784.15,2279.67 4787.5,2279.5C 4787.5,2282.5 4787.5,2285.5 4787.5,2288.5C 4733.83,2288.5 4680.17,2288.5 4626.5,2288.5C 4626.5,2285.5 4626.5,2282.5 4626.5,2279.5C 4638.91,2279.82 4651.25,2278.99 4663.5,2277C 4671.71,2275.62 4676.38,2270.79 4677.5,2262.5C 4671.25,2241.49 4662.91,2221.32 4652.5,2202C 4614.5,2201.5 4576.5,2201.33 4538.5,2201.5C 4535.24,2210.7 4531.4,2219.7 4527,2228.5C 4522.13,2244.77 4525.63,2258.93 4537.5,2271C 4545.56,2276.77 4554.56,2279.6 4564.5,2279.5C 4564.5,2282.5 4564.5,2285.5 4564.5,2288.5C 4526.5,2288.5 4488.5,2288.5 4450.5,2288.5C 4450.5,2285.5 4450.5,2282.5 4450.5,2279.5C 4463.2,2278.99 4474.54,2274.82 4484.5,2267C 4503.59,2248.66 4518.09,2227.16 4528,2202.5C 4556.41,2137.1 4584.91,2071.77 4613.5,2006.5 Z M 4594.5,2074.5 C 4612.77,2113.79 4630.77,2153.29 4648.5,2193C 4613.16,2193.83 4577.83,2193.67 4542.5,2192.5C 4560.4,2153.38 4577.73,2114.05 4594.5,2074.5 Z"/></g>
<g><path style="opacity:0.964" fill="#fefffe" d="M 1438.5,2011.5 C 1475.83,2011.33 1513.17,2011.5 1550.5,2012C 1613.3,2077.14 1676.47,2141.97 1740,2206.5C 1740.67,2167.83 1740.67,2129.17 1740,2090.5C 1739.62,2072.37 1734.62,2055.7 1725,2040.5C 1711.52,2026.51 1695.02,2019.85 1675.5,2020.5C 1675.5,2017.5 1675.5,2014.5 1675.5,2011.5C 1721.17,2011.5 1766.83,2011.5 1812.5,2011.5C 1812.5,2014.5 1812.5,2017.5 1812.5,2020.5C 1791.36,2019.59 1774.2,2027.26 1761,2043.5C 1754.03,2058.37 1750.37,2074.03 1750,2090.5C 1749.5,2157.5 1749.33,2224.5 1749.5,2291.5C 1746.81,2291.66 1744.15,2291.5 1741.5,2291C 1662.67,2210.17 1583.83,2129.33 1505,2048.5C 1504.33,2105.17 1504.33,2161.83 1505,2218.5C 1505.39,2233.07 1509.06,2246.74 1516,2259.5C 1525.25,2268.88 1536.41,2274.71 1549.5,2277C 1558.76,2278.68 1568.09,2279.51 1577.5,2279.5C 1577.5,2282.5 1577.5,2285.5 1577.5,2288.5C 1529.17,2288.5 1480.83,2288.5 1432.5,2288.5C 1432.5,2285.5 1432.5,2282.5 1432.5,2279.5C 1452.8,2279.92 1470.3,2273.25 1485,2259.5C 1490.93,2250.04 1494.26,2239.71 1495,2228.5C 1495.67,2173.17 1495.67,2117.83 1495,2062.5C 1493.33,2039.5 1481.17,2026 1458.5,2022C 1451.89,2020.79 1445.22,2020.29 1438.5,2020.5C 1438.5,2017.5 1438.5,2014.5 1438.5,2011.5 Z"/></g>
<g><path style="opacity:0.981" fill="#fefffe" d="M 1945.5,2011.5 C 2003.83,2011.5 2062.17,2011.5 2120.5,2011.5C 2120.5,2014.5 2120.5,2017.5 2120.5,2020.5C 2107.77,2019.73 2095.44,2021.57 2083.5,2026C 2076.61,2029.89 2071.45,2035.39 2068,2042.5C 2065.39,2049.62 2063.72,2056.95 2063,2064.5C 2062.33,2121.5 2062.33,2178.5 2063,2235.5C 2063.57,2246.46 2066.9,2256.46 2073,2265.5C 2079.94,2272.71 2088.44,2276.88 2098.5,2278C 2105.79,2279.12 2113.13,2279.62 2120.5,2279.5C 2120.5,2282.5 2120.5,2285.5 2120.5,2288.5C 2062.17,2288.5 2003.83,2288.5 1945.5,2288.5C 1945.5,2285.5 1945.5,2282.5 1945.5,2279.5C 1957.84,2279.86 1969.84,2278.02 1981.5,2274C 1989.39,2270.44 1994.89,2264.61 1998,2256.5C 2000.81,2249.43 2002.48,2242.1 2003,2234.5C 2003.67,2178.17 2003.67,2121.83 2003,2065.5C 2002.7,2038.54 1989.2,2023.7 1962.5,2021C 1956.84,2020.5 1951.18,2020.33 1945.5,2020.5C 1945.5,2017.5 1945.5,2014.5 1945.5,2011.5 Z"/></g>
<g><path style="opacity:0.971" fill="#fefffe" d="M 2255.5,2011.5 C 2294.17,2011.33 2332.83,2011.5 2371.5,2012C 2405.77,2081.37 2440.43,2150.53 2475.5,2219.5C 2509.42,2150.65 2543.09,2081.65 2576.5,2012.5C 2613.49,2011.5 2650.49,2011.17 2687.5,2011.5C 2687.5,2014.5 2687.5,2017.5 2687.5,2020.5C 2673.32,2019.55 2659.65,2021.72 2646.5,2027C 2639.9,2031.27 2635.07,2037.11 2632,2044.5C 2630.03,2050.36 2628.7,2056.36 2628,2062.5C 2627.33,2120.83 2627.33,2179.17 2628,2237.5C 2629.03,2261.19 2641.2,2274.69 2664.5,2278C 2672.13,2279.14 2679.79,2279.64 2687.5,2279.5C 2687.5,2282.5 2687.5,2285.5 2687.5,2288.5C 2627.83,2288.5 2568.17,2288.5 2508.5,2288.5C 2508.5,2285.5 2508.5,2282.5 2508.5,2279.5C 2525.07,2280.62 2540.74,2277.45 2555.5,2270C 2564.82,2259.71 2569.66,2247.55 2570,2233.5C 2570.67,2171.17 2570.67,2108.83 2570,2046.5C 2530.73,2126.71 2491.73,2207.04 2453,2287.5C 2449.67,2288.83 2446.33,2288.83 2443,2287.5C 2403.94,2207.04 2364.61,2126.71 2325,2046.5C 2324.33,2105.5 2324.33,2164.5 2325,2223.5C 2326.32,2240.96 2333.15,2255.8 2345.5,2268C 2357.12,2276.32 2370.12,2280.16 2384.5,2279.5C 2384.5,2282.5 2384.5,2285.5 2384.5,2288.5C 2341.5,2288.5 2298.5,2288.5 2255.5,2288.5C 2255.5,2285.5 2255.5,2282.5 2255.5,2279.5C 2292.57,2279.26 2312.41,2260.59 2315,2223.5C 2315.67,2171.5 2315.67,2119.5 2315,2067.5C 2314.9,2052.51 2309.73,2039.68 2299.5,2029C 2285.64,2022.19 2270.98,2019.36 2255.5,2020.5C 2255.5,2017.5 2255.5,2014.5 2255.5,2011.5 Z"/></g>
<g><path style="opacity:0.972" fill="#fefffe" d="M 3524.5,2011.5 C 3601.17,2011.33 3677.83,2011.5 3754.5,2012C 3782.81,2012.75 3806.97,2022.91 3827,2042.5C 3840,2058.18 3843.67,2075.85 3838,2095.5C 3832.94,2106.56 3825.11,2115.06 3814.5,2121C 3796.63,2131.29 3777.63,2138.62 3757.5,2143C 3785.28,2147.14 3810.61,2157.14 3833.5,2173C 3852.53,2191.29 3858.03,2213.13 3850,2238.5C 3841.98,2255.51 3829.15,2267.35 3811.5,2274C 3792.39,2282.44 3772.39,2287.11 3751.5,2288C 3675.83,2288.5 3600.17,2288.67 3524.5,2288.5C 3524.5,2285.5 3524.5,2282.5 3524.5,2279.5C 3539.85,2280.6 3554.18,2277.43 3567.5,2270C 3576.53,2260.76 3581.37,2249.59 3582,2236.5C 3582.67,2178.83 3582.67,2121.17 3582,2063.5C 3581.21,2051.96 3577.38,2041.63 3570.5,2032.5C 3564.28,2026.81 3556.95,2023.31 3548.5,2022C 3540.55,2020.78 3532.55,2020.28 3524.5,2020.5C 3524.5,2017.5 3524.5,2014.5 3524.5,2011.5 Z M 3642.5,2019.5 C 3668.84,2019.33 3695.17,2019.5 3721.5,2020C 3756.89,2021.62 3774.55,2040.12 3774.5,2075.5C 3775.09,2093.9 3769.09,2109.73 3756.5,2123C 3743.05,2132.37 3728.05,2137.37 3711.5,2138C 3688.5,2138.5 3665.5,2138.67 3642.5,2138.5C 3642.5,2098.83 3642.5,2059.17 3642.5,2019.5 Z M 3642.5,2147.5 C 3665.85,2147.23 3689.18,2147.73 3712.5,2149C 3729.73,2150.19 3745.73,2155.19 3760.5,2164C 3776.34,2176.18 3784.34,2192.35 3784.5,2212.5C 3784.11,2246.05 3767.78,2267.21 3735.5,2276C 3729.56,2277.39 3723.56,2278.39 3717.5,2279C 3692.5,2279.5 3667.5,2279.67 3642.5,2279.5C 3642.5,2235.5 3642.5,2191.5 3642.5,2147.5 Z"/></g>
<g><path style="opacity:0.965" fill="#fefffe" d="M 4012.5,2011.5 C 4111.17,2011.5 4209.83,2011.5 4308.5,2011.5C 4308.5,2047.5 4308.5,2083.5 4308.5,2119.5C 4305.55,2119.78 4302.72,2119.44 4300,2118.5C 4294.04,2094.25 4284.04,2071.92 4270,2051.5C 4259.64,2038.9 4246.47,2030.73 4230.5,2027C 4213.76,2022.8 4196.76,2020.47 4179.5,2020C 4163.17,2019.5 4146.84,2019.33 4130.5,2019.5C 4130.5,2062.5 4130.5,2105.5 4130.5,2148.5C 4173,2149.49 4199.5,2129.49 4210,2088.5C 4211.89,2079.92 4213.23,2071.25 4214,2062.5C 4216.72,2061.56 4219.55,2061.22 4222.5,2061.5C 4222.5,2122.5 4222.5,2183.5 4222.5,2244.5C 4219.5,2244.5 4216.5,2244.5 4213.5,2244.5C 4213.28,2221.25 4206.44,2200.25 4193,2181.5C 4175.68,2164.77 4154.84,2156.77 4130.5,2157.5C 4130.5,2198.17 4130.5,2238.83 4130.5,2279.5C 4154.22,2280.05 4177.89,2279.22 4201.5,2277C 4223.7,2274.6 4244.03,2267.27 4262.5,2255C 4285.47,2232.9 4299.97,2206.06 4306,2174.5C 4309.06,2173.55 4312.22,2173.22 4315.5,2173.5C 4315.5,2211.83 4315.5,2250.17 4315.5,2288.5C 4214.5,2288.5 4113.5,2288.5 4012.5,2288.5C 4012.5,2285.5 4012.5,2282.5 4012.5,2279.5C 4027.3,2280.4 4041.3,2277.57 4054.5,2271C 4064.08,2261.95 4069.25,2250.79 4070,2237.5C 4070.67,2179.17 4070.67,2120.83 4070,2062.5C 4069.29,2051.37 4065.62,2041.37 4059,2032.5C 4052.54,2026.9 4045.04,2023.4 4036.5,2022C 4028.55,2020.78 4020.55,2020.28 4012.5,2020.5C 4012.5,2017.5 4012.5,2014.5 4012.5,2011.5 Z"/></g>
<g><path style="opacity:0.971" fill="#fefffe" d="M 4902.5,2011.5 C 4967.17,2011.5 5031.83,2011.5 5096.5,2011.5C 5096.5,2014.5 5096.5,2017.5 5096.5,2020.5C 5078.75,2019.49 5061.42,2021.66 5044.5,2027C 5036.51,2030.33 5031.34,2036.16 5029,2044.5C 5025.75,2055.59 5024.08,2066.92 5024,2078.5C 5023.08,2124.18 5023.41,2169.85 5025,2215.5C 5027.11,2249.25 5044.27,2270.75 5076.5,2280C 5108.62,2288.39 5140.29,2287.06 5171.5,2276C 5200.25,2264.57 5216.08,2243.41 5219,2212.5C 5219.67,2171.5 5219.67,2130.5 5219,2089.5C 5218.62,2071.56 5213.95,2054.9 5205,2039.5C 5189.69,2025.34 5171.53,2019.01 5150.5,2020.5C 5150.5,2017.5 5150.5,2014.5 5150.5,2011.5C 5195.5,2011.5 5240.5,2011.5 5285.5,2011.5C 5285.5,2014.5 5285.5,2017.5 5285.5,2020.5C 5257.55,2021.05 5239.72,2034.72 5232,2061.5C 5229.83,2071.05 5228.49,2080.71 5228,2090.5C 5227.67,2132.17 5227.33,2173.83 5227,2215.5C 5222.57,2250.27 5203.74,2273.44 5170.5,2285C 5149.22,2291.89 5127.39,2295.06 5105,2294.5C 5075.44,2295.12 5046.61,2290.95 5018.5,2282C 4996.15,2272.91 4979.98,2257.41 4970,2235.5C 4968.2,2230.63 4966.86,2225.63 4966,2220.5C 4965.9,2168.82 4965.23,2117.15 4964,2065.5C 4963.16,2054.79 4960.16,2044.79 4955,2035.5C 4947.02,2027.94 4937.52,2023.44 4926.5,2022C 4918.55,2020.78 4910.55,2020.28 4902.5,2020.5C 4902.5,2017.5 4902.5,2014.5 4902.5,2011.5 Z"/></g>
<g><path style="opacity:0.968" fill="#fefffe" d="M 5419.5,2011.5 C 5528.17,2011.5 5636.83,2011.5 5745.5,2011.5C 5745.5,2058.5 5745.5,2105.5 5745.5,2152.5C 5742.55,2152.78 5739.72,2152.44 5737,2151.5C 5734.03,2113.57 5720.7,2079.91 5697,2050.5C 5673.92,2026.86 5645.75,2016.52 5612.5,2019.5C 5612.33,2092.83 5612.5,2166.17 5613,2239.5C 5615.81,2265.35 5630.31,2278.52 5656.5,2279C 5672.16,2279.5 5687.83,2279.67 5703.5,2279.5C 5703.5,2282.5 5703.5,2285.5 5703.5,2288.5C 5622.83,2288.5 5542.17,2288.5 5461.5,2288.5C 5461.5,2285.5 5461.5,2282.5 5461.5,2279.5C 5477.17,2279.67 5492.84,2279.5 5508.5,2279C 5534.69,2278.52 5549.19,2265.35 5552,2239.5C 5552.5,2166.17 5552.67,2092.83 5552.5,2019.5C 5504.02,2016.81 5469.19,2037.15 5448,2080.5C 5436.67,2102.49 5430,2125.82 5428,2150.5C 5425.54,2152.32 5422.71,2152.99 5419.5,2152.5C 5419.5,2105.5 5419.5,2058.5 5419.5,2011.5 Z"/></g>
<g><path style="opacity:0.97" fill="#fefffe" d="M 5874.5,2011.5 C 5933.83,2011.5 5993.17,2011.5 6052.5,2011.5C 6052.5,2014.5 6052.5,2017.5 6052.5,2020.5C 6042.83,2020.33 6033.16,2020.5 6023.5,2021C 6013.64,2021.86 6007.98,2027.19 6006.5,2037C 6009.17,2044.83 6013,2052 6018,2058.5C 6041.72,2090.05 6065.22,2121.72 6088.5,2153.5C 6109.99,2125.21 6131.49,2096.87 6153,2068.5C 6160.52,2059.04 6162.52,2048.7 6159,2037.5C 6156.04,2031.21 6151.2,2027.04 6144.5,2025C 6131.11,2021.15 6117.44,2019.65 6103.5,2020.5C 6103.5,2017.5 6103.5,2014.5 6103.5,2011.5C 6151.17,2011.5 6198.83,2011.5 6246.5,2011.5C 6246.5,2014.5 6246.5,2017.5 6246.5,2020.5C 6220.68,2023.08 6198.35,2033.24 6179.5,2051C 6149.24,2088.36 6120.08,2126.52 6092,2165.5C 6091.16,2189.19 6091.5,2212.85 6093,2236.5C 6093.49,2248.32 6097.33,2258.82 6104.5,2268C 6113.21,2273.9 6122.88,2277.24 6133.5,2278C 6142.47,2279.11 6151.47,2279.61 6160.5,2279.5C 6160.5,2282.5 6160.5,2285.5 6160.5,2288.5C 6094.5,2288.5 6028.5,2288.5 5962.5,2288.5C 5962.5,2285.5 5962.5,2282.5 5962.5,2279.5C 5975.96,2279.75 5989.29,2278.58 6002.5,2276C 6017.74,2272.93 6026.74,2263.76 6029.5,2248.5C 6030.74,2243.57 6031.57,2238.57 6032,2233.5C 6032.67,2212.5 6032.67,2191.5 6032,2170.5C 6001.76,2129.68 5971.76,2088.68 5942,2047.5C 5924.34,2026.76 5901.84,2017.76 5874.5,2020.5C 5874.5,2017.5 5874.5,2014.5 5874.5,2011.5 Z"/></g>
<g><path style="opacity:0.972" fill="#fefffe" d="M 3329.5,2107.5 C 3349.51,2105.08 3363.34,2113.08 3371,2131.5C 3375.69,2153.28 3367.86,2168.45 3347.5,2177C 3326.06,2181.37 3311.23,2173.53 3303,2153.5C 3298.72,2130.38 3307.55,2115.05 3329.5,2107.5 Z"/></g>
<g><path style="opacity:0.883" fill="#fefffe" d="M 3563.5,2432.5 C 3572.2,2430.83 3576.54,2434.33 3576.5,2443C 3576.17,2449.13 3574.67,2454.97 3572,2460.5C 3560.59,2481.6 3545.75,2500.1 3527.5,2516C 3507.22,2533.78 3486.22,2550.62 3464.5,2566.5C 3453.87,2585.09 3446.04,2604.75 3441,2625.5C 3439.08,2635.58 3443.25,2641.08 3453.5,2642C 3462.67,2642.07 3471.67,2640.74 3480.5,2638C 3503.81,2630.23 3526.48,2620.9 3548.5,2610C 3575.66,2596.26 3602.66,2582.26 3629.5,2568C 3637.53,2564.15 3645.86,2561.15 3654.5,2559C 3661.04,2557.99 3667.37,2558.66 3673.5,2561C 3678.49,2565.26 3679.65,2570.43 3677,2576.5C 3672.47,2586.06 3668.63,2595.9 3665.5,2606C 3666.71,2611.95 3670.38,2614.45 3676.5,2613.5C 3695.54,2611.99 3714.2,2608.49 3732.5,2603C 3769.14,2592.17 3804.81,2578.84 3839.5,2563C 3849.16,2559.07 3859.16,2557.73 3869.5,2559C 3873.07,2559.74 3875.07,2561.91 3875.5,2565.5C 3870.59,2577.06 3866.59,2588.89 3863.5,2601C 3864.05,2601.92 3864.71,2602.76 3865.5,2603.5C 3876.1,2593.06 3887.44,2583.56 3899.5,2575C 3909.89,2568.26 3921.23,2565.59 3933.5,2567C 3937.22,2568.26 3939.72,2570.76 3941,2574.5C 3943.31,2581.75 3945.31,2589.08 3947,2596.5C 3950.05,2609.23 3958.05,2615.56 3971,2615.5C 3986.59,2614.38 4001.76,2611.22 4016.5,2606C 4049.2,2593.65 4081.2,2579.65 4112.5,2564C 4123.82,2558.21 4135.49,2557.21 4147.5,2561C 4148.67,2562.17 4149.83,2563.33 4151,2564.5C 4151.67,2568.5 4151.67,2572.5 4151,2576.5C 4146.46,2586.08 4142.63,2595.91 4139.5,2606C 4140.49,2611.99 4143.99,2614.49 4150,2613.5C 4172.65,2611.44 4194.82,2606.94 4216.5,2600C 4247.15,2590.68 4276.82,2579.01 4305.5,2565C 4319.5,2559.18 4333.84,2557.85 4348.5,2561C 4352.73,2566.58 4351.4,2570.58 4344.5,2573C 4341.18,2573.5 4337.85,2573.67 4334.5,2573.5C 4334.25,2571.17 4334.91,2569.17 4336.5,2567.5C 4322.71,2564.76 4310.55,2568.42 4300,2578.5C 4289.85,2591.1 4290.35,2603.27 4301.5,2615C 4308.11,2619.59 4315.44,2621.42 4323.5,2620.5C 4345.36,2619.1 4366.69,2614.93 4387.5,2608C 4421.73,2596.88 4455.07,2583.55 4487.5,2568C 4489.13,2567.51 4490.8,2567.34 4492.5,2567.5C 4492.82,2569.72 4492.16,2571.56 4490.5,2573C 4443.36,2595.05 4394.36,2611.71 4343.5,2623C 4333.4,2624.71 4323.23,2625.88 4313,2626.5C 4305.26,2626.16 4297.76,2624.66 4290.5,2622C 4279.13,2615.41 4274.63,2605.58 4277,2592.5C 4277.97,2589.22 4279.47,2586.22 4281.5,2583.5C 4281,2583.17 4280.5,2582.83 4280,2582.5C 4249.13,2594.35 4217.63,2604.18 4185.5,2612C 4169.03,2616.42 4152.36,2617.76 4135.5,2616C 4128.83,2613.51 4125.5,2608.67 4125.5,2601.5C 4125.61,2597.67 4126.44,2594.01 4128,2590.5C 4131.59,2583.16 4134.75,2575.66 4137.5,2568C 4137.17,2565.15 4135.5,2563.65 4132.5,2563.5C 4127.28,2564.29 4122.28,2565.79 4117.5,2568C 4091.76,2581.37 4065.43,2593.37 4038.5,2604C 4019.82,2611.5 4000.48,2616.5 3980.5,2619C 3966.71,2620.87 3953.71,2618.54 3941.5,2612C 3937.58,2608.75 3934.41,2604.92 3932,2600.5C 3929.51,2593.56 3927.18,2586.56 3925,2579.5C 3923.29,2576.61 3920.79,2575.28 3917.5,2575.5C 3907.73,2576.88 3899.07,2580.72 3891.5,2587C 3881.57,2594.93 3872.23,2603.6 3863.5,2613C 3855.29,2614.07 3850.62,2610.57 3849.5,2602.5C 3850.04,2597.68 3851.21,2593.01 3853,2588.5C 3856.53,2581.6 3859.37,2574.43 3861.5,2567C 3861.44,2564.11 3859.94,2562.94 3857,2563.5C 3851.73,2564.59 3846.56,2566.09 3841.5,2568C 3794.75,2588.47 3746.42,2604.14 3696.5,2615C 3686.57,2616.85 3676.57,2617.51 3666.5,2617C 3652.89,2614.57 3648.39,2606.74 3653,2593.5C 3656.89,2585.15 3660.39,2576.65 3663.5,2568C 3663.17,2565.15 3661.5,2563.65 3658.5,2563.5C 3653.28,2564.29 3648.28,2565.79 3643.5,2568C 3604.2,2588.15 3564.53,2607.48 3524.5,2626C 3501.55,2636.71 3477.55,2643.87 3452.5,2647.5C 3432.21,2646.95 3423.71,2636.61 3427,2616.5C 3429.47,2603.58 3433.64,2591.25 3439.5,2579.5C 3439.17,2579.17 3438.83,2578.83 3438.5,2578.5C 3397.01,2600.27 3354.01,2618.44 3309.5,2633C 3282.88,2642.1 3255.55,2645.77 3227.5,2644C 3205.65,2641.14 3192.48,2628.98 3188,2607.5C 3186.04,2583.64 3190.37,2560.98 3201,2539.5C 3217.23,2503.61 3241.73,2474.78 3274.5,2453C 3299.14,2437.84 3325.81,2431.84 3354.5,2435C 3363.33,2438.66 3367.33,2445.32 3366.5,2455C 3366.57,2463.14 3364.4,2470.64 3360,2477.5C 3357.01,2480.26 3353.51,2481.1 3349.5,2480C 3347.7,2478.41 3346.7,2476.41 3346.5,2474C 3349.7,2466.94 3352.03,2459.6 3353.5,2452C 3353.8,2448.27 3352.47,2445.27 3349.5,2443C 3316.58,2440.08 3287.58,2449.42 3262.5,2471C 3226.44,2504.12 3205.77,2545.12 3200.5,2594C 3201.91,2619.08 3215.24,2632.74 3240.5,2635C 3263.29,2637.35 3285.62,2635.02 3307.5,2628C 3354.57,2612.64 3399.9,2593.14 3443.5,2569.5C 3461.61,2534.57 3483.45,2502.24 3509,2472.5C 3520.74,2458.75 3534.24,2447.25 3549.5,2438C 3554.16,2435.84 3558.83,2434.01 3563.5,2432.5 Z M 3566.5,2439.5 C 3568.72,2439.27 3570.38,2440.11 3571.5,2442C 3567.35,2457.14 3560.18,2470.64 3550,2482.5C 3527.14,2507.7 3502.14,2530.36 3475,2550.5C 3474.68,2549.09 3475.02,2547.76 3476,2546.5C 3495.94,2511.54 3520.11,2479.71 3548.5,2451C 3554.09,2446.38 3560.09,2442.55 3566.5,2439.5 Z"/></g>
<g><path style="opacity:0.91" fill="#fefffe" d="M 3685.5,2493.5 C 3693.44,2492.11 3697.44,2495.44 3697.5,2503.5C 3697.37,2510.79 3694.04,2515.79 3687.5,2518.5C 3685.62,2518.12 3684.12,2517.12 3683,2515.5C 3679.37,2509.81 3678.71,2503.81 3681,2497.5C 3682.4,2495.93 3683.9,2494.6 3685.5,2493.5 Z"/></g>
<g><path style="opacity:0.904" fill="#fefffe" d="M 4159.5,2493.5 C 4167.2,2492.03 4171.2,2495.2 4171.5,2503C 4171.18,2507.1 4170.02,2510.93 4168,2514.5C 4162.73,2520.27 4158.39,2519.6 4155,2512.5C 4153.06,2507.47 4153.06,2502.47 4155,2497.5C 4156.4,2495.93 4157.9,2494.6 4159.5,2493.5 Z"/></g>
</svg>
