<?xml version="1.0" encoding="UTF-8"?>
<!DOCTYPE svg PUBLIC "-//W3C//DTD SVG 1.1//EN" "http://www.w3.org/Graphics/SVG/1.1/DTD/svg11.dtd">
<svg width="129" height="29" viewBox="0 0 129 29" fill="none" xmlns="http://www.w3.org/2000/svg">
<g><path style="opacity:0.975" fill="#000000" d="M 3379.5,1381.5 C 3404.89,1416.59 3430.06,1451.92 3455,1487.5C 3523.33,1586.5 3591.67,1685.5 3660,1784.5C 3727.97,1727 3806.8,1698.67 3896.5,1699.5C 3896.67,1650.17 3896.5,1600.83 3896,1551.5C 3893.01,1524.52 3877.85,1510.69 3850.5,1510C 3838.86,1508.85 3827.19,1508.35 3815.5,1508.5C 3815.5,1506.5 3815.5,1504.5 3815.5,1502.5C 3906.5,1502.33 3997.5,1502.5 4088.5,1503C 4132.79,1504.82 4174.46,1516.16 4213.5,1537C 4273.34,1572.86 4298.84,1625.69 4290,1695.5C 4280.6,1748.49 4252.43,1787.99 4205.5,1814C 4174.43,1830.25 4141.43,1840.25 4106.5,1844C 4164.8,1853.31 4217.14,1875.97 4263.5,1912C 4334.04,1972.61 4360.21,2048.78 4342,2140.5C 4329.25,2197.55 4301.08,2245.38 4257.5,2284C 4212.77,2321.71 4162.1,2349.04 4105.5,2366C 4216.35,2441.33 4339.01,2479.83 4473.5,2481.5C 4473.5,2483.5 4473.5,2485.5 4473.5,2487.5C 4394.22,2488.3 4315.88,2480.14 4238.5,2463C 4117.77,2434.32 4012.43,2377.98 3922.5,2294C 3858.61,2232.49 3803.45,2164.33 3757,2089.5C 3711.67,2014.83 3666.33,1940.17 3621,1865.5C 3620.45,1862.58 3621.12,1859.91 3623,1857.5C 3636.08,1836.91 3651.58,1818.25 3669.5,1801.5C 3727.67,1897.17 3785.83,1992.83 3844,2088.5C 3896.45,2172.65 3960.28,2247.48 4035.5,2313C 4054.39,2328.69 4073.89,2343.52 4094,2357.5C 4189.44,2318.37 4245.1,2247.71 4261,2145.5C 4269.67,2095.19 4266.5,2045.69 4251.5,1997C 4228.74,1931.58 4185.41,1885.58 4121.5,1859C 4105.63,1853.29 4089.29,1849.63 4072.5,1848C 4041.17,1847.5 4009.84,1847.33 3978.5,1847.5C 3978.67,1974.17 3978.5,2100.83 3978,2227.5C 3948.61,2196.68 3921.61,2164.01 3897,2129.5C 3896.5,1988.17 3896.33,1846.83 3896.5,1705.5C 3809.94,1704.29 3733.61,1731.13 3667.5,1786C 3610.34,1839.81 3577.18,1905.98 3568,1984.5C 3551.46,2104.9 3586.63,2207.07 3673.5,2291C 3757.98,2364.4 3856.31,2395.73 3968.5,2385C 3982.97,2384.07 3997.3,2382.23 4011.5,2379.5C 4014.34,2381.09 4017.01,2382.92 4019.5,2385C 3979.11,2391.73 3938.45,2394.07 3897.5,2392C 3782.1,2382.42 3689.6,2331.92 3620,2240.5C 3570.73,2168.4 3550.73,2088.74 3560,2001.5C 3563.88,1945.52 3580.38,1893.69 3609.5,1846C 3534.61,1732.1 3460.11,1617.94 3386,1503.5C 3385.33,1719.17 3385.33,1934.83 3386,2150.5C 3388.02,2174.85 3401.18,2188.35 3425.5,2191C 3439.12,2192.69 3452.78,2193.52 3466.5,2193.5C 3466.5,2195.5 3466.5,2197.5 3466.5,2199.5C 3410.5,2199.5 3354.5,2199.5 3298.5,2199.5C 3298.5,2197.5 3298.5,2195.5 3298.5,2193.5C 3316.42,2193.93 3334.08,2192.1 3351.5,2188C 3367.95,2181.96 3376.79,2170.12 3378,2152.5C 3379.49,1895.51 3379.99,1638.51 3379.5,1381.5 Z M 3978.5,1508.5 C 4014.53,1508.05 4050.53,1508.55 4086.5,1510C 4137.79,1520.62 4174.29,1549.79 4196,1597.5C 4215.78,1650.97 4214.45,1703.97 4192,1756.5C 4163.82,1811.36 4118.65,1839.53 4056.5,1841C 4030.5,1841.5 4004.5,1841.67 3978.5,1841.5C 3978.5,1730.5 3978.5,1619.5 3978.5,1508.5 Z"/></g>
<g><path style="opacity:0.934" fill="#000000" d="M 3542.5,2624.5 C 3545.31,2628.04 3547.48,2632.04 3549,2636.5C 3562.13,2667.75 3574.96,2699.08 3587.5,2730.5C 3581.91,2730.81 3576.41,2730.47 3571,2729.5C 3567.53,2720.91 3564.36,2712.25 3561.5,2703.5C 3548.82,2703.17 3536.15,2703.5 3523.5,2704.5C 3519.9,2712.79 3516.4,2721.13 3513,2729.5C 3508.22,2730.8 3503.38,2730.8 3498.5,2729.5C 3512.91,2694.36 3527.57,2659.36 3542.5,2624.5 Z M 3541.5,2658.5 C 3542.75,2658.58 3543.58,2659.24 3544,2660.5C 3548.34,2670.68 3552.17,2681.01 3555.5,2691.5C 3546.49,2691.67 3537.49,2691.5 3528.5,2691C 3533.25,2680.33 3537.59,2669.5 3541.5,2658.5 Z"/></g>
<g><path style="opacity:0.933" fill="#000000" d="M 4135.5,2624.5 C 4137.34,2625.12 4138.5,2626.46 4139,2628.5C 4153.07,2662.21 4167.24,2695.87 4181.5,2729.5C 4175.83,2730.83 4170.17,2730.83 4164.5,2729.5C 4161.44,2721.05 4158.11,2712.72 4154.5,2704.5C 4141.85,2703.5 4129.18,2703.17 4116.5,2703.5C 4113.74,2712.36 4110.41,2721.02 4106.5,2729.5C 4101.53,2730.66 4096.53,2730.83 4091.5,2730C 4106.31,2694.88 4120.98,2659.72 4135.5,2624.5 Z M 4135.5,2657.5 C 4140.39,2668.3 4145.06,2679.3 4149.5,2690.5C 4140.5,2691.83 4131.5,2691.83 4122.5,2690.5C 4127.04,2679.56 4131.37,2668.56 4135.5,2657.5 Z"/></g>
<g><path style="opacity:0.93" fill="#000000" d="M 3310.5,2625.5 C 3313.1,2627.3 3315.26,2629.64 3317,2632.5C 3331.25,2653.34 3345.75,2674.01 3360.5,2694.5C 3377.32,2671.54 3394.15,2648.54 3411,2625.5C 3411.5,2660.5 3411.67,2695.5 3411.5,2730.5C 3406.83,2730.5 3402.17,2730.5 3397.5,2730.5C 3397.67,2709.5 3397.5,2688.5 3397,2667.5C 3384.99,2684.33 3372.83,2701 3360.5,2717.5C 3348.51,2701.33 3336.67,2685 3325,2668.5C 3324.5,2689.16 3324.33,2709.83 3324.5,2730.5C 3319.83,2730.5 3315.17,2730.5 3310.5,2730.5C 3310.5,2695.5 3310.5,2660.5 3310.5,2625.5 Z"/></g>
<g><path style="opacity:0.951" fill="#000000" d="M 3014.5,2626.5 C 3015.68,2626.28 3016.68,2626.61 3017.5,2627.5C 3040.82,2651.99 3064.32,2676.32 3088,2700.5C 3088.5,2676.84 3088.67,2653.17 3088.5,2629.5C 3093.17,2629.5 3097.83,2629.5 3102.5,2629.5C 3102.83,2664.17 3102.5,2698.84 3101.5,2733.5C 3077.54,2709.04 3053.37,2684.71 3029,2660.5C 3028.5,2683.83 3028.33,2707.16 3028.5,2730.5C 3023.83,2730.5 3019.17,2730.5 3014.5,2730.5C 3014.5,2695.83 3014.5,2661.17 3014.5,2626.5 Z"/></g>
<g><path style="opacity:0.975" fill="#000000" d="M 3199.5,2629.5 C 3204.17,2629.5 3208.83,2629.5 3213.5,2629.5C 3213.5,2663.17 3213.5,2696.83 3213.5,2730.5C 3208.83,2730.5 3204.17,2730.5 3199.5,2730.5C 3199.5,2696.83 3199.5,2663.17 3199.5,2629.5 Z"/></g>
<g><path style="opacity:0.935" fill="#000000" d="M 3787.5,2629.5 C 3799.84,2629.33 3812.17,2629.5 3824.5,2630C 3842.38,2633.57 3849.55,2644.41 3846,2662.5C 3843.98,2669.05 3840.15,2674.21 3834.5,2678C 3848.25,2684 3853.75,2694.5 3851,2709.5C 3846.04,2722.44 3836.54,2729.27 3822.5,2730C 3810.84,2730.5 3799.17,2730.67 3787.5,2730.5C 3787.5,2696.83 3787.5,2663.17 3787.5,2629.5 Z M 3802.5,2642.5 C 3810.78,2641.92 3818.78,2643.08 3826.5,2646C 3830.49,2648.81 3832.16,2652.65 3831.5,2657.5C 3831.92,2664.5 3828.92,2669.33 3822.5,2672C 3815.84,2672.5 3809.17,2672.67 3802.5,2672.5C 3802.5,2662.5 3802.5,2652.5 3802.5,2642.5 Z M 3802.5,2686.5 C 3810.99,2685.99 3819.32,2686.82 3827.5,2689C 3836.89,2693.83 3839.05,2700.99 3834,2710.5C 3832.27,2712.62 3830.1,2714.12 3827.5,2715C 3819.24,2716.37 3810.9,2716.87 3802.5,2716.5C 3802.5,2706.5 3802.5,2696.5 3802.5,2686.5 Z"/></g>
<g><path style="opacity:0.962" fill="#000000" d="M 3942.5,2629.5 C 3964.5,2629.5 3986.5,2629.5 4008.5,2629.5C 4008.5,2633.83 4008.5,2638.17 4008.5,2642.5C 3991.17,2642.5 3973.83,2642.5 3956.5,2642.5C 3956.5,2652.5 3956.5,2662.5 3956.5,2672.5C 3971.83,2672.5 3987.17,2672.5 4002.5,2672.5C 4002.5,2677.17 4002.5,2681.83 4002.5,2686.5C 3987.17,2686.5 3971.83,2686.5 3956.5,2686.5C 3956.5,2696.5 3956.5,2706.5 3956.5,2716.5C 3974.5,2716.5 3992.5,2716.5 4010.5,2716.5C 4010.5,2721.17 4010.5,2725.83 4010.5,2730.5C 3987.83,2730.5 3965.17,2730.5 3942.5,2730.5C 3942.5,2696.83 3942.5,2663.17 3942.5,2629.5 Z"/></g>
<g><path style="opacity:0.956" fill="#000000" d="M 4265.5,2629.5 C 4270.17,2629.5 4274.83,2629.5 4279.5,2629.5C 4279.05,2653.54 4279.55,2677.54 4281,2701.5C 4288.16,2715.83 4299.33,2720.33 4314.5,2715C 4320.08,2712.02 4323.91,2707.52 4326,2701.5C 4327.46,2677.55 4327.96,2653.55 4327.5,2629.5C 4332.17,2629.5 4336.83,2629.5 4341.5,2629.5C 4341.67,2653.84 4341.5,2678.17 4341,2702.5C 4335.8,2721.38 4323.3,2731.04 4303.5,2731.5C 4283.79,2730.93 4271.29,2721.27 4266,2702.5C 4265.5,2678.17 4265.33,2653.84 4265.5,2629.5 Z"/></g>
<g><path style="opacity:0.967" fill="#000000" d="M 4429.5,2629.5 C 4452.17,2629.5 4474.83,2629.5 4497.5,2629.5C 4497.5,2633.83 4497.5,2638.17 4497.5,2642.5C 4488.5,2642.5 4479.5,2642.5 4470.5,2642.5C 4470.5,2671.83 4470.5,2701.17 4470.5,2730.5C 4465.83,2730.5 4461.17,2730.5 4456.5,2730.5C 4456.5,2701.17 4456.5,2671.83 4456.5,2642.5C 4447.5,2642.5 4438.5,2642.5 4429.5,2642.5C 4429.5,2638.17 4429.5,2633.83 4429.5,2629.5 Z"/></g>
<g><path style="opacity:0.94" fill="#000000" d="M 4576.5,2629.5 C 4582.54,2629.17 4588.54,2629.5 4594.5,2630.5C 4603.33,2646.83 4612.17,2663.17 4621,2679.5C 4629.92,2663.33 4638.59,2646.99 4647,2630.5C 4653.08,2629.36 4659.25,2629.19 4665.5,2630C 4652.87,2652.09 4640.37,2674.25 4628,2696.5C 4627.5,2707.83 4627.33,2719.16 4627.5,2730.5C 4622.83,2730.5 4618.17,2730.5 4613.5,2730.5C 4613.67,2719.16 4613.5,2707.83 4613,2696.5C 4600.81,2674.11 4588.64,2651.78 4576.5,2629.5 Z"/></g>
<g><path style="opacity:0.941" fill="#000000" d="M 3678.5,2659.5 C 3689.74,2659.07 3696.07,2664.41 3697.5,2675.5C 3693.89,2690.14 3685.22,2694.3 3671.5,2688C 3664.72,2681.16 3663.89,2673.66 3669,2665.5C 3671.84,2662.84 3675.01,2660.84 3678.5,2659.5 Z"/></g>
<g><path style="opacity:0.871" fill="#000000" d="M 3658.5,2794.5 C 3672.4,2791.92 3679.4,2797.59 3679.5,2811.5C 3676.3,2833.28 3668.13,2852.95 3655,2870.5C 3646.06,2882.27 3636.23,2893.27 3625.5,2903.5C 3635.63,2928.5 3653.63,2936.67 3679.5,2928C 3692.73,2921.22 3704.73,2912.72 3715.5,2902.5C 3716.26,2898.1 3717.26,2893.77 3718.5,2889.5C 3721.62,2887.65 3724.96,2887.15 3728.5,2888C 3722.26,2915.6 3733.26,2930.1 3761.5,2931.5C 3774.47,2930.79 3786.47,2926.96 3797.5,2920C 3807.1,2913.73 3816.1,2906.73 3824.5,2899C 3826.77,2898.24 3828.94,2898.41 3831,2899.5C 3831.28,2903.19 3831.28,2906.86 3831,2910.5C 3839.18,2897.21 3850.01,2894.38 3863.5,2902C 3886.03,2931.77 3913.03,2936.44 3944.5,2916C 3949.65,2911.69 3954.65,2907.19 3959.5,2902.5C 3960.41,2898.19 3961.25,2893.85 3962,2889.5C 3964.95,2887.92 3968.12,2887.26 3971.5,2887.5C 3967.29,2919.46 3981.29,2933.96 4013.5,2931C 4032.86,2926.32 4049.53,2916.99 4063.5,2903C 4076.93,2895.37 4091.27,2893.04 4106.5,2896C 4112.42,2898.14 4113.75,2901.81 4110.5,2907C 4108,2908.43 4105.5,2908.6 4103,2907.5C 4100.87,2901.68 4096.7,2899.35 4090.5,2900.5C 4083.83,2900.22 4078,2902.22 4073,2906.5C 4070.8,2913.22 4072.63,2918.72 4078.5,2923C 4088.06,2927.26 4098.06,2928.59 4108.5,2927C 4133.54,2924.76 4156.54,2916.76 4177.5,2903C 4179.47,2902.5 4181.47,2902.34 4183.5,2902.5C 4183.82,2904.72 4183.16,2906.56 4181.5,2908C 4150.45,2927.18 4116.78,2935.18 4080.5,2932C 4069.3,2930.13 4062.8,2923.63 4061,2912.5C 4038.36,2929.82 4012.86,2936.99 3984.5,2934C 3971.77,2931.61 3963.94,2924.11 3961,2911.5C 3940.54,2929.76 3916.71,2936.93 3889.5,2933C 3883.93,2931.22 3878.6,2928.88 3873.5,2926C 3867.52,2920.35 3861.86,2914.35 3856.5,2908C 3850.18,2902.86 3844.68,2903.7 3840,2910.5C 3837.07,2916.95 3834.74,2923.62 3833,2930.5C 3830.02,2933.1 3826.52,2934.1 3822.5,2933.5C 3821.18,2925.9 3820.35,2918.23 3820,2910.5C 3795.43,2930.25 3767.6,2937.75 3736.5,2933C 3725.49,2929.32 3718.65,2921.82 3716,2910.5C 3699.98,2926.09 3680.81,2935.09 3658.5,2937.5C 3637.43,2937.42 3622.77,2927.75 3614.5,2908.5C 3585.62,2926.05 3554.29,2934.22 3520.5,2933C 3512.18,2932.34 3505.01,2929.17 3499,2923.5C 3492.77,2910.45 3496.6,2901.62 3510.5,2897C 3518.72,2894.87 3527.06,2894.2 3535.5,2895C 3539.98,2895.15 3543.48,2896.99 3546,2900.5C 3547.06,2905.62 3544.89,2908.29 3539.5,2908.5C 3538.56,2908.39 3537.72,2908.06 3537,2907.5C 3534.9,2901.7 3530.74,2899.36 3524.5,2900.5C 3517.83,2900.22 3512,2902.22 3507,2906.5C 3504.72,2914.26 3507.22,2920.09 3514.5,2924C 3523.54,2927.34 3532.87,2928.34 3542.5,2927C 3567.79,2924.57 3591.12,2916.57 3612.5,2903C 3607.66,2868.89 3615.16,2837.72 3635,2809.5C 3641.52,2802.33 3649.36,2797.33 3658.5,2794.5 Z M 3656.5,2801.5 C 3662.35,2800 3666.18,2802 3668,2807.5C 3669.51,2817.79 3668.18,2827.79 3664,2837.5C 3653.79,2859.03 3640.46,2878.37 3624,2895.5C 3618.11,2861.55 3626.61,2831.72 3649.5,2806C 3651.9,2804.48 3654.23,2802.98 3656.5,2801.5 Z"/></g>
<g><path style="opacity:0.854" fill="#000000" d="M 3726.5,2865.5 C 3734.55,2864.37 3737.22,2867.54 3734.5,2875C 3730.67,2877.77 3726.84,2877.93 3723,2875.5C 3721.02,2871.12 3722.18,2867.79 3726.5,2865.5 Z"/></g>
<g><path style="opacity:0.854" fill="#000000" d="M 3970.5,2865.5 C 3978.55,2864.37 3981.22,2867.54 3978.5,2875C 3974.67,2877.77 3970.84,2877.93 3967,2875.5C 3965.02,2871.12 3966.18,2867.79 3970.5,2865.5 Z"/></g>
</svg>
