<?xml version="1.0" standalone="no"?>
<!DOCTYPE svg PUBLIC "-//W3C//DTD SVG 20010904//EN"
 "http://www.w3.org/TR/2001/REC-SVG-20010904/DTD/svg10.dtd">
<svg version="1.0" xmlns="http://www.w3.org/2000/svg"
 width="7681.000000pt" height="4320.000000pt" viewBox="0 0 7681.000000 4320.000000"
 preserveAspectRatio="xMidYMid meet">

<g transform="translate(0.000000,4320.000000) scale(0.100000,-0.100000)"
fill="#000000" stroke="none">
<path d="M33800 25575 c0 -2380 -4 -3831 -10 -3884 -13 -112 -33 -178 -72
-237 -87 -129 -235 -179 -565 -191 l-163 -6 0 -29 0 -28 835 0 835 0 0 28 0
29 -167 7 c-344 13 -491 68 -570 212 -73 134 -67 -170 -70 3454 -3 2734 -1
3252 10 3240 8 -8 41 -58 74 -110 202 -318 978 -1511 1781 -2738 210 -320 382
-585 382 -587 0 -2 -20 -38 -45 -79 -115 -189 -247 -504 -319 -761 -152 -547
-187 -1205 -92 -1750 123 -707 501 -1392 1039 -1883 591 -541 1285 -857 2122
-969 183 -24 736 -24 990 1 187 18 385 43 392 50 2 2 -10 14 -27 26 -25 18
-40 21 -73 16 -292 -42 -513 -57 -827 -57 -465 0 -848 61 -1245 199 -1308 453
-2208 1552 -2351 2872 -20 192 -15 700 10 900 59 463 172 842 360 1206 465
900 1366 1487 2476 1614 52 6 179 13 283 17 l187 6 0 -2121 0 -2121 92 -123
c119 -160 291 -376 409 -513 122 -144 290 -329 301 -333 4 -2 8 852 8 1897 l0
1901 398 0 c541 0 699 -16 953 -96 122 -38 330 -134 444 -204 516 -316 894
-880 1025 -1527 42 -210 53 -358 47 -653 -8 -383 -45 -644 -138 -950 -188
-624 -572 -1125 -1115 -1455 -167 -102 -421 -225 -462 -225 -10 0 -88 53 -174
118 -729 545 -1387 1227 -1964 2037 -232 324 -415 617 -1254 2000 -464 765
-845 1392 -847 1395 -8 8 -188 -184 -274 -292 -75 -94 -181 -245 -208 -296
-11 -20 45 -115 644 -1103 361 -594 692 -1137 737 -1207 1214 -1905 2603
-3053 4328 -3577 775 -235 1516 -341 2588 -370 l222 -6 0 29 0 29 -198 6
c-1183 38 -2297 390 -3344 1057 l-147 94 137 48 c312 109 669 274 887 410 921
575 1396 1371 1398 2343 1 304 -39 527 -143 793 -109 279 -261 511 -495 751
-152 155 -262 247 -435 363 -356 237 -795 410 -1225 483 -55 9 -107 19 -115
22 -8 3 37 14 102 24 540 84 966 274 1271 568 306 294 466 657 484 1092 26
652 -297 1161 -927 1463 -267 128 -532 201 -910 254 -99 13 -308 16 -1512 19
l-1398 4 0 -31 0 -30 110 0 c202 0 371 -26 475 -74 71 -32 117 -75 154 -145
62 -118 63 -129 68 -948 l5 -743 -44 0 c-109 0 -396 -23 -528 -41 -542 -76
-1041 -265 -1475 -560 -88 -60 -136 -97 -297 -229 l-37 -31 -64 93 c-35 51
-268 390 -517 753 -1029 1498 -2159 3123 -2211 3180 -5 5 -9 -1604 -9 -3790z
m7090 2520 c301 -49 618 -230 826 -473 321 -372 449 -877 368 -1452 -39 -283
-132 -534 -281 -759 -72 -108 -262 -301 -366 -370 -170 -113 -368 -193 -578
-232 -103 -19 -160 -22 -591 -26 l-478 -5 0 1666 0 1666 503 0 c404 0 521 -3
597 -15z"/>
<path d="M35416 16909 c-193 -458 -410 -978 -413 -992 -5 -16 1 -18 63 -15
l68 3 51 127 50 128 192 0 191 0 51 -127 50 -128 81 -3 c45 -2 80 1 77 5 -3 4
-100 235 -217 513 -116 278 -216 509 -221 514 -5 6 -14 -4 -23 -25z m154 -626
c0 -2 -63 -3 -140 -3 -77 0 -140 3 -140 6 0 6 129 325 137 338 4 6 142 -324
143 -341z"/>
<path d="M41149 16429 c-118 -282 -215 -516 -217 -520 -2 -5 28 -9 66 -9 l69
0 21 53 c11 30 34 88 52 130 l32 77 191 0 192 0 50 -130 50 -130 78 0 c59 0
78 3 74 13 -51 131 -432 1027 -437 1027 -4 0 -103 -230 -221 -511z m286 31
c37 -94 65 -173 63 -176 -3 -2 -66 -3 -141 -2 l-135 3 70 173 c39 94 72 172
74 172 1 0 33 -77 69 -170z"/>
<path d="M30150 16416 l0 -516 70 0 70 0 0 353 1 352 362 -368 c199 -202 365
-368 370 -367 4 0 7 232 7 515 l0 515 -70 0 -70 0 -2 -357 -3 -357 -358 370
c-198 203 -363 371 -368 372 -5 2 -9 -209 -9 -512z"/>
<path d="M33120 16416 l0 -516 65 0 65 0 2 308 3 308 178 -248 179 -249 52 73
c28 40 110 156 181 258 l130 184 3 -317 2 -317 70 0 70 0 0 515 c0 283 -2 515
-5 515 -2 0 -115 -155 -251 -345 -136 -189 -251 -342 -255 -340 -4 3 -107 148
-230 322 -122 175 -231 329 -241 342 -17 23 -18 8 -18 -493z"/>
<path d="M32000 16400 l0 -500 70 0 70 0 0 500 0 500 -70 0 -70 0 0 -500z"/>
<path d="M37880 16400 l0 -501 213 3 c196 3 216 5 262 26 126 58 187 180 155
311 -14 60 -70 128 -128 156 l-40 20 39 33 c51 44 80 101 86 174 8 82 -12 143
-62 194 -67 66 -110 77 -332 82 l-193 4 0 -502z m344 359 c89 -25 128 -115 90
-207 -29 -69 -65 -86 -191 -90 l-103 -4 0 156 0 156 83 0 c45 0 100 -5 121
-11z m73 -457 c76 -39 100 -107 65 -184 -31 -70 -77 -88 -225 -88 l-117 0 0
151 0 151 118 -4 c95 -4 125 -9 159 -26z"/>
<path d="M39430 16400 l0 -500 340 0 341 0 -3 63 -3 62 -267 3 -268 2 0 150 0
150 230 0 230 0 0 70 0 70 -230 0 -230 0 0 150 0 150 260 0 260 0 0 65 0 65
-330 0 -330 0 0 -500z"/>
<path d="M42660 16558 c0 -371 5 -419 53 -501 113 -192 421 -229 596 -72 22
21 55 67 73 103 l33 67 3 372 3 373 -70 0 -71 0 0 -352 c0 -400 -1 -403 -79
-469 -71 -61 -176 -77 -261 -38 -60 27 -88 54 -116 114 -24 50 -24 53 -24 398
l0 347 -70 0 -70 0 0 -342z"/>
<path d="M44310 16835 l0 -65 130 0 130 0 0 -435 0 -435 70 0 70 0 0 435 0
435 135 0 135 0 0 65 0 65 -335 0 -335 0 0 -65z"/>
<path d="M45782 16878 c8 -13 92 -163 186 -333 l172 -311 0 -167 0 -167 70 0
70 0 0 165 0 165 185 330 c102 181 185 332 185 335 0 3 -37 5 -82 5 l-83 -1
-134 -255 c-126 -239 -135 -254 -147 -232 -7 13 -68 127 -137 253 l-124 230
-88 3 -88 3 15 -23z"/>
<path d="M36745 16571 c-53 -33 -69 -58 -72 -119 -5 -67 16 -110 69 -142 62
-38 158 -18 201 42 30 40 34 124 8 166 -43 68 -141 94 -206 53z"/>
<path d="M36575 15237 c-100 -33 -188 -99 -246 -183 -45 -66 -116 -215 -148
-311 -58 -176 -76 -393 -42 -535 l9 -37 -97 -54 c-249 -140 -495 -204 -747
-196 -97 4 -114 7 -155 31 -53 31 -78 65 -86 114 -8 47 11 80 61 104 93 44
217 33 244 -22 15 -32 60 -38 86 -12 28 28 13 65 -37 91 -73 38 -299 12 -379
-43 -68 -48 -89 -140 -45 -205 53 -79 150 -114 312 -113 250 2 520 74 762 204
l92 50 25 -55 c27 -59 100 -144 150 -174 81 -49 220 -74 331 -59 128 18 291
96 439 212 l70 54 16 -48 c32 -96 113 -168 211 -189 72 -16 214 -13 309 5 148
28 275 82 417 176 l80 54 7 -80 c9 -120 21 -156 52 -156 40 0 68 39 98 135 34
110 73 155 132 155 36 0 46 -7 139 -104 113 -117 179 -157 299 -183 193 -40
494 51 651 198 l30 29 17 -48 c24 -66 78 -126 146 -159 55 -27 62 -28 207 -27
120 0 165 5 227 22 114 31 217 77 320 142 l93 58 6 -39 c25 -176 314 -224 715
-119 130 35 270 90 387 154 95 51 116 71 99 88 -9 9 -48 -6 -160 -64 -252
-130 -411 -172 -662 -173 -151 0 -156 1 -201 27 -53 31 -78 65 -86 114 -8 47
12 80 61 103 94 45 213 35 241 -19 12 -23 22 -30 45 -30 28 0 60 22 60 41 0
22 -22 50 -53 66 -38 20 -184 22 -262 4 -75 -18 -174 -69 -230 -119 -74 -66
-157 -119 -259 -167 -109 -51 -177 -68 -271 -68 -145 0 -256 55 -310 154 -28
51 -30 60 -30 172 l0 118 -35 -6 c-50 -10 -57 -19 -65 -86 -7 -58 -8 -60 -83
-130 -140 -128 -318 -196 -490 -186 -126 7 -209 51 -327 173 -101 103 -145
134 -193 134 -64 0 -155 -54 -194 -114 l-20 -31 5 58 c7 102 -28 102 -143 1
-101 -89 -175 -138 -284 -189 -109 -51 -177 -68 -271 -68 -149 0 -261 58 -311
160 -27 53 -29 67 -29 171 l0 113 -35 -6 c-49 -9 -56 -18 -64 -80 -6 -49 -11
-58 -62 -107 -82 -78 -183 -151 -263 -191 -178 -89 -371 -72 -490 43 -38 37
-101 144 -101 173 0 7 25 37 56 67 268 261 474 634 474 858 0 83 -11 115 -50
144 -33 24 -114 31 -165 15z m82 -62 c25 -18 43 -71 43 -131 0 -57 -35 -187
-71 -264 -69 -148 -214 -361 -330 -486 l-59 -63 -7 27 c-5 15 -8 95 -8 177 1
193 23 286 105 452 80 161 143 243 211 277 61 30 86 32 116 11z"/>
<path d="M37280 14533 c-45 -16 -65 -64 -38 -91 17 -17 69 -15 96 4 52 36 3
109 -58 87z"/>
<path d="M39720 14533 c-45 -16 -65 -64 -38 -91 17 -17 69 -15 96 4 52 36 3
109 -58 87z"/>
</g>
</svg>
